HIERARCHY
ROOT Hips
{
	OFFSET 0.000000 89.005402 0.000000
	CHANNELS 6 Xposition Yposition Zposition Xrotation Yrotation Zrotation
	JOINT Spine
	{
		OFFSET 0.116900 10.681000 0.373400
		CHANNELS 3 Xrotation Yrotation Zrotation
		JOINT Spine1
		{
			OFFSET 0.000000 13.840401 0.053500
			CHANNELS 3 Xrotation Yrotation Zrotation
			JOINT Spine2
			{
				OFFSET 0.000000 14.712700 -0.366200
				CHANNELS 3 Xrotation Yrotation Zrotation
				JOINT Neck
				{
					OFFSET 0.000000 35.415497 -3.314200
					CHANNELS 3 Xrotation Yrotation Zrotation
					JOINT Head
					{
						OFFSET 0.000000 16.899200 1.218300
						CHANNELS 3 Xrotation Yrotation Zrotation
						JOINT HeadTop_End
						{
							OFFSET 0.000000 22.206207 2.192500
							CHANNELS 3 Xrotation Yrotation Zrotation
							End Site
							{
								OFFSET 0.000000 22.314178 0.000000
							}
						}
					}
				}
				JOINT LeftShoulder
				{
					OFFSET 12.896400 26.716293 -4.548400
					CHANNELS 3 Xrotation Yrotation Zrotation
					JOINT LeftArm
					{
						OFFSET 19.027000 -4.857010 -1.718400
						CHANNELS 3 Xrotation Yrotation Zrotation
						JOINT LeftForeArm
						{
							OFFSET 24.179897 0.000000 0.000000
							CHANNELS 3 Xrotation Yrotation Zrotation
							JOINT LeftHand
							{
								OFFSET 27.156403 0.000000 0.000000
								CHANNELS 3 Xrotation Yrotation Zrotation
								JOINT LeftHandIndex1
								{
									OFFSET 16.441200 0.000000 0.000000
									CHANNELS 3 Xrotation Yrotation Zrotation
									JOINT LeftHandIndex2
									{
										OFFSET 4.821899 0.000000 0.000000
										CHANNELS 3 Xrotation Yrotation Zrotation
										JOINT LeftHandIndex3
										{
											OFFSET 6.386497 0.000000 0.000000
											CHANNELS 3 Xrotation Yrotation Zrotation
											JOINT LeftHandIndex4
											{
												OFFSET 5.188988 0.000000 0.000000
												CHANNELS 3 Xrotation Yrotation Zrotation
												End Site
												{
													OFFSET -0.178703 5.185913 0.000177
												}
											}
										}
									}
								}
								JOINT LeftHandThumb1
								{
									OFFSET 6.534897 -5.032593 5.900300
									CHANNELS 3 Xrotation Yrotation Zrotation
									JOINT LeftHandThumb2
									{
										OFFSET 3.818176 -2.204422 2.204423
										CHANNELS 3 Xrotation Yrotation Zrotation
										JOINT LeftHandThumb3
										{
											OFFSET 3.252098 -1.877594 1.877601
											CHANNELS 3 Xrotation Yrotation Zrotation
											JOINT LeftHandThumb4
											{
												OFFSET 5.251778 -3.032120 3.032117
												CHANNELS 3 Xrotation Yrotation Zrotation
												End Site
												{
													OFFSET 0.000023 6.780014 0.000000
												}
											}
										}
									}
								}
							}
						}
					}
				}
				JOINT RightShoulder
				{
					OFFSET -12.896300 26.716293 -4.548400
					CHANNELS 3 Xrotation Yrotation Zrotation
					JOINT RightArm
					{
						OFFSET -19.027000 -4.857010 -1.718400
						CHANNELS 3 Xrotation Yrotation Zrotation
						JOINT RightForeArm
						{
							OFFSET -24.179897 0.000000 0.000000
							CHANNELS 3 Xrotation Yrotation Zrotation
							JOINT RightHand
							{
								OFFSET -27.156403 0.000000 0.000000
								CHANNELS 3 Xrotation Yrotation Zrotation
								JOINT RightHandThumb1
								{
									OFFSET -6.591202 -4.852203 5.988100
									CHANNELS 3 Xrotation Yrotation Zrotation
									JOINT RightHandThumb2
									{
										OFFSET -3.818176 -2.204422 2.204423
										CHANNELS 3 Xrotation Yrotation Zrotation
										JOINT RightHandThumb3
										{
											OFFSET -3.252098 -1.877594 1.877601
											CHANNELS 3 Xrotation Yrotation Zrotation
											JOINT RightHandThumb4
											{
												OFFSET -5.251778 -3.032120 3.032117
												CHANNELS 3 Xrotation Yrotation Zrotation
												End Site
												{
													OFFSET -0.000023 6.780014 0.000000
												}
											}
										}
									}
								}
								JOINT RightHandIndex1
								{
									OFFSET -16.029404 0.000000 0.000000
									CHANNELS 3 Xrotation Yrotation Zrotation
									JOINT RightHandIndex2
									{
										OFFSET -5.213303 0.000000 0.000000
										CHANNELS 3 Xrotation Yrotation Zrotation
										JOINT RightHandIndex3
										{
											OFFSET -6.386528 0.000000 0.000000
											CHANNELS 3 Xrotation Yrotation Zrotation
											JOINT RightHandIndex4
											{
												OFFSET -5.189026 0.000000 0.000000
												CHANNELS 3 Xrotation Yrotation Zrotation
												End Site
												{
													OFFSET 0.236702 5.183624 0.001972
												}
											}
										}
									}
								}
							}
						}
					}
				}
			}
		}
	}
	JOINT LeftUpLeg
	{
		OFFSET 14.073000 -7.904099 -1.463000
		CHANNELS 3 Xrotation Yrotation Zrotation
		JOINT LeftLeg
		{
			OFFSET -0.109806 -34.073280 4.093200
			CHANNELS 3 Xrotation Yrotation Zrotation
			JOINT LeftFoot
			{
				OFFSET 0.109806 -29.899420 -6.319000
				CHANNELS 3 Xrotation Yrotation Zrotation
				JOINT LeftToeBase
				{
					OFFSET 1.551100 -14.988700 20.535801
					CHANNELS 3 Xrotation Yrotation Zrotation
					JOINT LeftToe_End
					{
						OFFSET 0.221200 0.570800 13.248301
						CHANNELS 3 Xrotation Yrotation Zrotation
						End Site
						{
							OFFSET 0.000000 13.262435 0.000000
						}
					}
				}
			}
		}
	}
	JOINT RightUpLeg
	{
		OFFSET -13.839300 -7.904099 -1.463000
		CHANNELS 3 Xrotation Yrotation Zrotation
		JOINT RightLeg
		{
			OFFSET 0.109694 -34.073219 4.093300
			CHANNELS 3 Xrotation Yrotation Zrotation
			JOINT RightFoot
			{
				OFFSET -0.109694 -29.899384 -6.319200
				CHANNELS 3 Xrotation Yrotation Zrotation
				JOINT RightToeBase
				{
					OFFSET -1.551100 -14.988700 20.535801
					CHANNELS 3 Xrotation Yrotation Zrotation
					JOINT RightToe_End
					{
						OFFSET -0.221200 0.570900 13.248299
						CHANNELS 3 Xrotation Yrotation Zrotation
						End Site
						{
							OFFSET 0.000000 13.262440 0.000000
						}
					}
				}
			}
		}
	}
}
MOTION
Frames: 8
Frame Time: 0.033333
-8.524881 84.873573 1.139809 7.870367 2.877191 7.883408 -2.294836 -0.552358 -0.557801 -4.635922 -1.026641 -1.125450 -4.642600 -0.995756 -1.124454 1.761349 1.246959 1.307716 16.290657 9.064743 -10.581580 0.000001 -0.000000 0.000000 -0.013326 7.658035 -7.980881 20.566707 -22.586862 -57.726150 -0.000001 -13.604657 0.000010 -3.314072 -10.796431 15.045438 -0.000000 -0.000001 -0.000011 -0.000001 -0.000000 0.000005 -0.000001 -0.000001 0.000001 -0.000001 -0.000001 0.000001 -1.540038 3.690185 6.142350 3.939052 7.948703 0.746809 -0.579472 1.575004 2.538712 -0.000000 -0.000001 0.000003 0.311976 -11.867200 7.607330 -61.412840 26.694763 17.461075 -0.000005 28.813969 -0.000004 -16.583781 14.716191 -33.943185 -1.849253 -3.581794 -6.586135 4.637190 -8.634137 -0.225403 -1.273750 0.137305 -2.094874 0.000001 0.000002 -0.000001 0.000000 -0.000000 0.000001 -0.000003 0.000004 0.000003 0.000000 -0.000007 -0.000003 -0.000000 0.000001 0.000000 -26.067116 18.264375 19.050559 25.562611 -2.049687 3.061036 18.499948 -2.166190 -22.504959 -30.234693 -0.000003 -0.000001 0.000001 0.000002 0.000000 -9.870678 -3.610829 -15.403075 21.919641 -9.354071 -9.171583 -17.853638 -6.162489 19.030936 -0.868596 0.000002 0.000004 0.000000 -0.000001 -0.000000 
-8.376777 85.036095 0.728645 6.988416 2.639051 8.557142 -1.651275 -0.510831 -0.583957 -3.348264 -0.963681 -1.782021 -3.353413 -0.945232 -1.781722 2.063199 1.140748 2.051879 12.550639 9.982678 -10.495635 0.000000 0.000001 0.000000 -0.002118 7.381174 -7.686350 22.894864 -26.639186 -55.409729 -0.000003 -13.376459 0.000007 -6.087670 -9.000147 15.492749 -0.000001 -0.000000 -0.000005 -0.000002 0.000000 0.000004 0.000001 -0.000002 -0.000001 -0.000001 0.000003 -0.000000 -1.540039 3.690187 6.142347 3.939050 7.948703 0.746813 -0.579471 1.575003 2.538710 -0.000001 0.000001 0.000004 0.300394 -11.327152 7.441698 -52.932600 30.551235 7.929826 0.000001 26.546001 -0.000005 -30.935184 11.960988 -2.209348 -1.849256 -3.581799 -6.586141 4.637189 -8.634129 -0.225403 -1.273751 0.137306 -2.094876 0.000000 -0.000001 -0.000001 -0.000001 0.000002 -0.000001 -0.000005 0.000004 0.000001 0.000000 -0.000004 -0.000004 0.000000 -0.000000 0.000001 -25.549574 19.385421 18.415865 25.648650 -2.196133 2.977874 19.154099 -2.138897 -21.367545 -30.490094 0.000010 -0.000001 -0.000000 0.000001 0.000001 -9.609204 -3.949145 -15.989789 21.856829 -9.455595 -10.015691 -17.387776 -5.793489 19.715150 -0.950702 0.000002 0.000004 0.000000 0.000002 0.000000 
-8.253310 85.068130 0.317255 6.122652 1.668060 9.761663 -0.837395 -0.389514 -0.772600 -1.717855 -0.771058 -3.170183 -1.720666 -0.764218 -3.170228 1.770276 1.164844 2.635691 7.352003 11.137091 -9.880275 0.000000 0.000000 0.000000 0.013017 7.043865 -7.337081 25.682350 -28.119112 -51.348235 0.000002 -14.803412 -0.000005 -7.583499 -8.164014 15.829322 0.000001 -0.000001 -0.000006 0.000001 0.000002 0.000000 0.000001 0.000003 -0.000001 -0.000001 -0.000001 -0.000001 -1.540037 3.690186 6.142349 3.939054 7.948704 0.746810 -0.579474 1.575005 2.538706 0.000001 0.000001 0.000001 0.176758 -9.972197 6.160421 -32.551920 28.430821 -10.712533 -0.000010 22.572790 -0.000002 -38.384844 3.822059 22.518311 -1.849253 -3.581795 -6.586141 4.637184 -8.634133 -0.225400 -1.273750 0.137311 -2.094872 -0.000001 0.000000 -0.000001 0.000003 -0.000002 0.000001 -0.000003 0.000001 0.000003 -0.000003 -0.000006 -0.000005 -0.000003 -0.000003 -0.000001 -25.145855 20.983898 17.944685 26.234419 -1.970104 2.607039 20.612840 -2.269566 -20.345394 -31.464721 0.000019 0.000000 -0.000000 -0.000002 -0.000001 -10.014829 -3.754596 -16.888097 22.732551 -9.240819 -11.483332 -17.268030 -5.533631 20.736951 -1.359788 0.000012 -0.000001 -0.000000 -0.000000 0.000000 
-8.224305 85.022903 0.035494 5.812873 -0.296703 11.109308 -0.120947 -0.201825 -1.052180 -0.276176 -0.504806 -5.000435 -0.277149 -0.503605 -5.000503 0.845524 1.339274 2.704158 1.856545 11.975759 -8.206465 -0.000000 0.000000 -0.000000 0.025809 6.722991 -6.971789 28.473727 -26.374091 -46.808902 0.000001 -17.917944 0.000001 -7.212068 -7.750764 16.006212 -0.000000 -0.000002 -0.000005 0.000004 0.000002 0.000004 -0.000000 -0.000001 0.000001 0.000001 0.000005 0.000003 -1.540039 3.690185 6.142353 3.939050 7.948700 0.746808 -0.579470 1.575004 2.538711 -0.000000 -0.000000 0.000001 -0.050695 -6.535843 2.347004 -4.618969 10.508993 -25.894019 -0.000002 28.950785 0.000003 -37.546332 -1.691121 37.370933 -1.849246 -3.581797 -6.586142 4.637188 -8.634137 -0.225403 -1.273751 0.137308 -2.094872 -0.000002 0.000001 0.000000 0.000001 -0.000001 -0.000002 -0.000004 0.000004 -0.000001 0.000000 -0.000004 -0.000001 0.000000 -0.000001 -0.000002 -25.240790 22.043490 17.773522 27.935050 0.187145 1.983561 22.154472 -2.309821 -18.822859 -32.947607 -0.000003 -0.000000 0.000000 0.000004 0.000001 -11.270146 -2.735507 -17.705221 24.198841 -9.019810 -12.786605 -17.180670 -5.671156 21.520309 -2.010362 0.000010 -0.000002 -0.000000 -0.000000 0.000000 
-8.348735 85.101440 -0.129916 6.284122 -3.143309 11.860338 0.356139 0.165135 -1.473067 0.711087 0.070029 -6.665065 0.711242 0.070163 -6.665050 -0.592930 1.519010 2.471246 -3.094013 11.949646 -5.001416 -0.000000 0.000001 -0.000001 0.031088 6.492951 -6.648112 29.956370 -23.110983 -43.086455 0.000002 -22.107931 0.000014 -5.771448 -6.732973 15.655692 0.000004 -0.000003 -0.000007 0.000001 0.000000 0.000004 0.000003 -0.000003 -0.000002 -0.000000 -0.000002 -0.000000 -1.540033 3.690183 6.142351 3.939050 7.948704 0.746812 -0.579471 1.575006 2.538715 0.000001 0.000002 0.000001 0.047835 -1.125948 -3.790730 20.403826 -11.999541 -22.652549 -0.000005 40.881240 0.000003 -28.771728 -0.719902 40.874137 -1.849254 -3.581795 -6.586143 4.637191 -8.634133 -0.225402 -1.273749 0.137309 -2.094872 0.000002 -0.000003 -0.000001 -0.000001 -0.000002 0.000001 -0.000003 0.000003 0.000004 0.000000 -0.000004 -0.000002 0.000001 -0.000002 0.000001 -26.078992 22.326025 18.229138 30.361335 4.130223 1.455516 22.998374 -2.040941 -16.351589 -34.293277 -0.000004 0.000000 -0.000000 -0.000003 -0.000001 -13.023719 -1.355728 -17.616349 24.927351 -9.510685 -13.351143 -16.422565 -5.572701 21.680055 -2.534193 -0.000004 -0.000001 0.000000 0.000001 0.000000 
-8.558577 85.389633 -0.214956 7.233672 -6.128796 11.491654 0.654540 0.815780 -2.061164 1.388356 1.223223 -7.741375 1.391241 1.221916 -7.741079 -2.379008 1.502542 2.330859 -7.026972 10.656607 -0.481639 -0.000000 0.000000 0.000000 0.025613 6.535976 -6.646365 30.195354 -21.631890 -39.452163 0.000004 -26.419424 -0.000004 -5.364758 -4.575099 14.479781 0.000003 -0.000003 -0.000005 0.000001 0.000001 0.000006 0.000003 -0.000001 -0.000001 0.000001 -0.000001 0.000001 -1.540038 3.690187 6.142355 3.939050 7.948703 0.746808 -0.579472 1.575005 2.538714 0.000001 0.000001 0.000002 0.625528 3.672448 -9.512130 39.384920 -20.016474 -8.778048 -0.000004 46.238099 0.000003 -13.683559 3.738918 33.514615 -1.849263 -3.581795 -6.586138 4.637190 -8.634138 -0.225403 -1.273747 0.137308 -2.094874 0.000001 -0.000000 0.000001 -0.000002 0.000001 0.000000 -0.000004 0.000006 0.000002 0.000003 -0.000006 0.000001 -0.000000 -0.000002 -0.000001 -27.630767 21.891176 19.304215 32.565481 7.959852 1.752859 23.159100 -1.576579 -13.812593 -35.115355 0.000007 -0.000002 -0.000001 0.000001 0.000000 -15.071518 -0.903803 -16.234547 24.821100 -9.646770 -13.222719 -14.941064 -5.067218 20.673302 -2.955638 0.000000 0.000004 0.000000 0.000000 -0.000000 
-8.707131 85.813019 -0.132135 8.153766 -8.105349 10.100313 0.789751 1.603621 -2.775613 1.752375 2.749650 -8.233743 1.764787 2.744965 -8.232895 -4.079569 1.213147 2.380924 -9.328482 8.236843 4.346609 -0.000000 -0.000000 0.000000 0.011599 6.933555 -7.133012 31.527453 -23.261381 -34.409851 0.000005 -30.713902 0.000007 -7.381563 -2.117503 12.453692 0.000004 -0.000002 -0.000005 -0.000000 0.000000 0.000003 0.000002 0.000001 0.000003 -0.000002 -0.000001 0.000000 -1.540035 3.690184 6.142355 3.939052 7.948699 0.746811 -0.579472 1.575004 2.538709 -0.000000 0.000002 0.000003 0.999488 5.577685 -12.162623 49.990834 -16.794486 4.496971 0.000018 40.705971 -0.000007 3.117409 6.206067 18.912519 -1.849262 -3.581797 -6.586140 4.637189 -8.634136 -0.225402 -1.273752 0.137309 -2.094873 0.000000 -0.000000 -0.000000 0.000003 -0.000001 0.000000 -0.000002 0.000001 0.000002 0.000002 -0.000002 -0.000002 -0.000000 -0.000001 0.000001 -29.479312 20.631230 20.715930 33.970663 10.159077 2.679382 23.178682 -1.217085 -12.114299 -35.490667 0.000007 0.000004 -0.000000 0.000000 0.000001 -16.921800 -2.070028 -15.113346 24.659433 -7.778049 -11.348384 -12.897037 -4.332530 19.038495 -5.023289 0.000006 0.000004 0.000000 -0.000000 -0.000000 
-8.704223 86.261955 0.241762 8.955503 -8.362616 8.081943 0.617828 2.181091 -3.496836 1.449285 3.985378 -8.285992 1.477018 3.980487 -8.284389 -5.103011 0.728932 2.728638 -9.561815 5.583901 8.480995 -0.000000 0.000001 0.000000 -0.001864 7.233016 -7.447875 35.848511 -25.364384 -28.565074 -0.000007 -36.002132 0.000016 -10.786052 -1.345247 9.537740 -0.000003 -0.000002 -0.000005 0.000001 -0.000000 0.000007 -0.000003 0.000002 0.000003 -0.000000 0.000001 0.000000 -1.540037 3.690186 6.142352 3.939049 7.948700 0.746809 -0.579468 1.575004 2.538712 0.000003 0.000001 0.000001 0.806404 4.615165 -11.526799 51.757445 -12.598277 13.085830 -0.000005 31.159193 0.000005 16.195801 6.462919 2.214805 -1.849252 -3.581791 -6.586139 4.637189 -8.634135 -0.225401 -1.273752 0.137308 -2.094873 0.000001 0.000000 -0.000001 -0.000000 0.000001 0.000000 -0.000002 0.000004 0.000003 0.000001 -0.000004 -0.000002 0.000001 -0.000001 0.000000 -31.306534 18.611005 22.153609 34.815974 10.806430 3.412432 22.933216 -1.022059 -11.163979 -35.790854 0.000002 -0.000001 -0.000001 -0.000001 0.000000 -17.791857 -4.143436 -14.788121 24.101181 -5.116634 -7.947997 -11.129951 -3.317700 16.603522 -7.897019 0.000006 0.000000 -0.000000 0.000001 0.000000 
